M48
METRIC,LZ,000.000
;FILE_FORMAT=3:3
;TYPE=PLATED
;Layer: PTH_Through_Via
;EasyEDA v6.5.23, 2023-05-22 12:01:23
;2ef3873b6a8849e1a700537b5c5aa0b8,043974f40ccd47e6b80d377579d0ea0a,10
;Gerber Generator version 0.2
;Holesize 1 = 0.305 mm
T01C0.305
%
G05
G90
T01
X086487Y062484
X071247Y062484
X045847Y062484
X020447Y062484
X063627Y020193
X022778Y042164
X038227Y026797
X091567Y020320
X091567Y025400
X045847Y018161
X050927Y050546
X076327Y050546
X020701Y032860
X028067Y032860
X045847Y054229
X071247Y054229
X048387Y052324
X073787Y052324
X053467Y049276
X078867Y049276
M30
