M48
METRIC,LZ,000.000
;FILE_FORMAT=3:3
;TYPE=PLATED
;Layer: PTH_Through
;EasyEDA v6.5.23, 2023-05-22 12:01:23
;2ef3873b6a8849e1a700537b5c5aa0b8,043974f40ccd47e6b80d377579d0ea0a,10
;Gerber Generator version 0.2
;Holesize 1 = 0.600 mm
T01C0.600
;Holesize 2 = 0.800 mm
T02C0.800
;Holesize 3 = 1.000 mm
T03C1.000
;Holesize 4 = 1.101 mm
T04C1.101
;Holesize 5 = 1.200 mm
T05C1.200
%
G05
G90
T01
X045674Y037973G85X046274Y037973
X048214Y037973G85X048814Y037973
X043134Y037973G85X043734Y037973
T02
X020447Y022733
X022987Y022733
X025527Y022733
X028067Y022733
X020447Y030353
X022987Y030353
X025527Y030353
X028067Y030353
T03
X095481Y062184G85X095481Y062784
X101481Y062184G85X101481Y062784
X098181Y067184G85X098781Y067184
T04
X091567Y015113
X089027Y015113
X086487Y015113
X083947Y015113
X081407Y015113
X078867Y015113
X076327Y015113
X073787Y015113
X071247Y015113
X068707Y015113
X066167Y015113
X063627Y015113
X061087Y015113
X058547Y015113
X091567Y030353
X089027Y030353
X086487Y030353
X083947Y030353
X081407Y030353
X078867Y030353
X076327Y030353
X073787Y030353
X071247Y030353
X068707Y030353
X066167Y030353
X063627Y030353
X061087Y030353
X058547Y030353
X025527Y065913
X028067Y065913
X030607Y065913
X033147Y065913
X050927Y065913
X053467Y065913
X056007Y065913
X058547Y065913
X076327Y066040
X078867Y066040
X081407Y066040
X083947Y066040
X089027Y045593
X089027Y045593
T05
X020447Y045593
X022987Y045593
X025527Y045593
X028067Y045593
X030607Y045593
X033147Y045593
X035687Y045593
X038227Y045593
X020447Y058293
X022987Y058293
X025527Y058293
X028067Y058293
X030607Y058293
X033147Y058293
X035687Y058293
X038227Y058293
X045847Y045593
X048387Y045593
X050927Y045593
X053467Y045593
X056007Y045593
X058547Y045593
X061087Y045593
X063627Y045593
X045847Y058293
X048387Y058293
X050927Y058293
X053467Y058293
X056007Y058293
X058547Y058293
X061087Y058293
X063627Y058293
X071247Y045593
X073787Y045593
X076327Y045593
X078867Y045593
X081407Y045593
X083947Y045593
X086487Y045593
X089027Y045593
X071247Y058293
X073787Y058293
X076327Y058293
X078867Y058293
X081407Y058293
X083947Y058293
X086487Y058293
X089027Y058293
X096774Y050673
X099314Y050673
X096774Y035433
X099314Y035433
X096647Y043053
X099187Y043053
M30
