G04 Layer: TopSolderMaskLayer*
G04 EasyEDA v6.5.23, 2023-05-22 12:01:23*
G04 2ef3873b6a8849e1a700537b5c5aa0b8,043974f40ccd47e6b80d377579d0ea0a,10*
G04 Gerber Generator version 0.2*
G04 Scale: 100 percent, Rotated: No, Reflected: No *
G04 Dimensions in millimeters *
G04 leading zeros omitted , absolute positions ,4 integer and 5 decimal *
%FSLAX45Y45*%
%MOMM*%

%AMMACRO1*1,1,$1,$2,$3*1,1,$1,$4,$5*1,1,$1,0-$2,0-$3*1,1,$1,0-$4,0-$5*20,1,$1,$2,$3,$4,$5,0*20,1,$1,$4,$5,0-$2,0-$3,0*20,1,$1,0-$2,0-$3,0-$4,0-$5,0*20,1,$1,0-$4,0-$5,$2,$3,0*4,1,4,$2,$3,$4,$5,0-$2,0-$3,0-$4,0-$5,$2,$3,0*%
%ADD10MACRO1,0.1016X-0.6038X-0.8505X-0.6038X0.8505*%
%ADD11MACRO1,0.1016X0.6038X-0.8505X0.6038X0.8505*%
%ADD12MACRO1,0.1016X-0.4X0.45X0.4X0.45*%
%ADD13O,1.609598X3.1175960000000003*%
%ADD14O,3.1175960000000003X1.609598*%
%ADD15MACRO1,0.1016X-0.825X1.27X0.825X1.27*%
%ADD16O,1.9015963999999999X1.1015979999999999*%
%ADD17MACRO1,0.1016X-0.9X0.5X0.9X0.5*%
%ADD18O,1.561592X1.92659*%
%ADD19C,1.8016*%
%ADD20MACRO1,0.1016X-0.85X0.7874X0.85X0.7874*%
%ADD21MACRO1,0.1016X-0.9X0.9X0.9X0.9*%
%ADD22C,1.9016*%
%ADD23MACRO1,0.1016X-1X1X1X1*%
%ADD24C,2.1016*%
%ADD25MACRO1,0.1016X-0.85X0.85X0.85X0.85*%

%LPD*%
D10*
G01*
X9926876Y2273300D03*
D11*
G01*
X9631123Y2273300D03*
D12*
G01*
X4476899Y3289300D03*
G01*
X4336900Y3289300D03*
G01*
X4832499Y3035300D03*
G01*
X4692500Y3035300D03*
D10*
G01*
X3335576Y1511300D03*
D11*
G01*
X3039823Y1511300D03*
D10*
G01*
X3589576Y3797300D03*
D11*
G01*
X3293823Y3797300D03*
D10*
G01*
X2319576Y1511300D03*
D11*
G01*
X2023823Y1511300D03*
D10*
G01*
X2573576Y3797300D03*
D11*
G01*
X2277823Y3797300D03*
D13*
G01*
X9548088Y6248400D03*
G01*
X10148087Y6248400D03*
D14*
G01*
X9848113Y6718401D03*
D15*
G01*
X4330700Y1477309D03*
G01*
X4584700Y1477307D03*
G01*
X4838700Y1477304D03*
G01*
X4838700Y2307292D03*
G01*
X4584700Y2307292D03*
G01*
X4330700Y2307292D03*
D16*
G01*
X4597400Y3797300D03*
G01*
X4851400Y3797300D03*
D17*
G01*
X4343400Y3797300D03*
D18*
G01*
X2044700Y2273300D03*
G01*
X2298700Y2273300D03*
G01*
X2552700Y2273300D03*
G01*
X2806700Y2273300D03*
G01*
X2044700Y3035300D03*
G01*
X2298700Y3035300D03*
G01*
X2552700Y3035300D03*
G01*
X2806700Y3035300D03*
D19*
G01*
X9156700Y1511300D03*
G01*
X8902700Y1511300D03*
G01*
X8648700Y1511300D03*
G01*
X8394700Y1511300D03*
G01*
X8140700Y1511300D03*
G01*
X7886700Y1511300D03*
G01*
X7632700Y1511300D03*
G01*
X7378700Y1511300D03*
G01*
X7124700Y1511300D03*
G01*
X6870700Y1511300D03*
G01*
X6616700Y1511300D03*
G01*
X6362700Y1511300D03*
G01*
X6108700Y1511300D03*
D20*
G01*
X5854700Y1511300D03*
D19*
G01*
X9156700Y3035300D03*
G01*
X8902700Y3035300D03*
G01*
X8648700Y3035300D03*
G01*
X8394700Y3035300D03*
G01*
X8140700Y3035300D03*
G01*
X7886700Y3035300D03*
G01*
X7632700Y3035300D03*
G01*
X7378700Y3035300D03*
G01*
X7124700Y3035300D03*
G01*
X6870700Y3035300D03*
G01*
X6616700Y3035300D03*
G01*
X6362700Y3035300D03*
G01*
X6108700Y3035300D03*
D20*
G01*
X5854700Y3035300D03*
D21*
G01*
X2044700Y4559300D03*
D22*
G01*
X2298700Y4559300D03*
G01*
X2552700Y4559300D03*
G01*
X2806700Y4559300D03*
G01*
X3060700Y4559300D03*
G01*
X3314700Y4559300D03*
G01*
X3568700Y4559300D03*
G01*
X3822700Y4559300D03*
D21*
G01*
X2044700Y5829300D03*
D22*
G01*
X2298700Y5829300D03*
G01*
X2552700Y5829300D03*
G01*
X2806700Y5829300D03*
G01*
X3060700Y5829300D03*
G01*
X3314700Y5829300D03*
G01*
X3568700Y5829300D03*
G01*
X3822700Y5829300D03*
D21*
G01*
X4584700Y4559300D03*
D22*
G01*
X4838700Y4559300D03*
G01*
X5092700Y4559300D03*
G01*
X5346700Y4559300D03*
G01*
X5600700Y4559300D03*
G01*
X5854700Y4559300D03*
G01*
X6108700Y4559300D03*
G01*
X6362700Y4559300D03*
D21*
G01*
X4584700Y5829300D03*
D22*
G01*
X4838700Y5829300D03*
G01*
X5092700Y5829300D03*
G01*
X5346700Y5829300D03*
G01*
X5600700Y5829300D03*
G01*
X5854700Y5829300D03*
G01*
X6108700Y5829300D03*
G01*
X6362700Y5829300D03*
D21*
G01*
X7124700Y4559300D03*
D22*
G01*
X7378700Y4559300D03*
G01*
X7632700Y4559300D03*
G01*
X7886700Y4559300D03*
G01*
X8140700Y4559300D03*
G01*
X8394700Y4559300D03*
G01*
X8648700Y4559300D03*
G01*
X8902700Y4559300D03*
D21*
G01*
X7124700Y5829300D03*
D22*
G01*
X7378700Y5829300D03*
G01*
X7632700Y5829300D03*
G01*
X7886700Y5829300D03*
G01*
X8140700Y5829300D03*
G01*
X8394700Y5829300D03*
G01*
X8648700Y5829300D03*
G01*
X8902700Y5829300D03*
D23*
G01*
X9677400Y5067300D03*
D24*
G01*
X9931400Y5067300D03*
D25*
G01*
X2552700Y6591300D03*
D19*
G01*
X2806700Y6591300D03*
G01*
X3060700Y6591300D03*
G01*
X3314700Y6591300D03*
D25*
G01*
X5092700Y6591300D03*
D19*
G01*
X5346700Y6591300D03*
G01*
X5600700Y6591300D03*
G01*
X5854700Y6591300D03*
D25*
G01*
X7632700Y6604000D03*
D19*
G01*
X7886700Y6604000D03*
G01*
X8140700Y6604000D03*
G01*
X8394700Y6604000D03*
D23*
G01*
X9677400Y3543300D03*
D24*
G01*
X9931400Y3543300D03*
D23*
G01*
X9664700Y4305300D03*
D24*
G01*
X9918700Y4305300D03*
D19*
G01*
X8902700Y4559300D03*
G01*
X8902700Y4559300D03*
M02*
